<svg xmlns="http://www.w3.org/2000/svg" viewBox="0 0 100 100">
  <defs>
    <linearGradient id="bg" x1="0%" y1="0%" x2="100%" y2="100%">
      <stop offset="0%" style="stop-color:#0f172a"/>
      <stop offset="100%" style="stop-color:#1e40af"/>
    </linearGradient>
    <linearGradient id="accent" x1="0%" y1="0%" x2="100%" y2="100%">
      <stop offset="0%" style="stop-color:#22d3ee"/>
      <stop offset="100%" style="stop-color:#06b6d4"/>
    </linearGradient>
  </defs>
  <!-- Background circle -->
  <circle cx="50" cy="50" r="48" fill="url(#bg)"/>
  <!-- Rupee symbol -->
  <g fill="url(#accent)">
    <path d="M30 25h40v6H30z"/>
    <path d="M30 38h40v6H30z"/>
    <path d="M50 38c8 0 14.5 5.5 16 13H60c-1.5-4.5-6-8-10-8s-8.5 3.5-10 8h-6c1.5-7.5 8-13 16-13z"/>
    <path d="M50 51l18 28h-8l-14-21.5L32 79h-8l18-28z"/>
  </g>
  <!-- Modern accent line -->
  <circle cx="50" cy="50" r="45" fill="none" stroke="url(#accent)" stroke-width="2" opacity="0.3"/>
</svg>
